<mxfile host="app.diagrams.net" modified="2023-09-04T07:17:59.070Z" agent="Mozilla/5.0 (Windows NT 10.0; Win64; x64) AppleWebKit/537.36 (KHTML, like Gecko) Chrome/112.0.0.0 Safari/537.36 Edg/112.0.1722.58" etag="NW5l1VIaaaVSnshs-NKf" version="21.7.2" type="device">
  <diagram name="Seite-1" id="LBHeCZBAaKW2GauHXNSW">
    <mxGraphModel dx="1377" dy="796" grid="1" gridSize="10" guides="1" tooltips="1" connect="1" arrows="1" fold="1" page="1" pageScale="1" pageWidth="827" pageHeight="1169" math="0" shadow="0">
      <root>
        <mxCell id="0" />
        <mxCell id="1" parent="0" />
        <mxCell id="2BcEILWLfWBQvOdwHt-k-4" value="Startseite" style="swimlane;fillColor=#d5e8d4;strokeColor=#82b366;" vertex="1" parent="1">
          <mxGeometry x="230" y="20" width="400" height="220" as="geometry" />
        </mxCell>
        <mxCell id="2BcEILWLfWBQvOdwHt-k-5" value="index.html" style="whiteSpace=wrap;html=1;" vertex="1" parent="2BcEILWLfWBQvOdwHt-k-4">
          <mxGeometry x="10" y="30" width="380" height="40" as="geometry" />
        </mxCell>
        <mxCell id="2BcEILWLfWBQvOdwHt-k-6" value="Grafik: logo.gif&lt;br&gt;a: Konto a: Kontakt a: Impressum - Abmelden" style="whiteSpace=wrap;html=1;" vertex="1" parent="2BcEILWLfWBQvOdwHt-k-4">
          <mxGeometry x="10" y="80" width="380" height="40" as="geometry" />
        </mxCell>
        <mxCell id="2BcEILWLfWBQvOdwHt-k-29" style="edgeStyle=orthogonalEdgeStyle;rounded=0;orthogonalLoop=1;jettySize=auto;html=1;entryX=0.224;entryY=1.05;entryDx=0;entryDy=0;entryPerimeter=0;" edge="1" parent="2BcEILWLfWBQvOdwHt-k-4">
          <mxGeometry relative="1" as="geometry">
            <mxPoint x="-90" y="333" as="sourcePoint" />
            <mxPoint x="105.11999999999989" y="120" as="targetPoint" />
            <Array as="points">
              <mxPoint x="-90" y="240" />
              <mxPoint x="105" y="240" />
            </Array>
          </mxGeometry>
        </mxCell>
        <mxCell id="2BcEILWLfWBQvOdwHt-k-7" value="Konto" style="swimlane;fillColor=#fff2cc;strokeColor=#d6b656;" vertex="1" parent="1">
          <mxGeometry y="355" width="260" height="230" as="geometry" />
        </mxCell>
        <mxCell id="2BcEILWLfWBQvOdwHt-k-8" value="konto.html" style="whiteSpace=wrap;html=1;" vertex="1" parent="2BcEILWLfWBQvOdwHt-k-7">
          <mxGeometry x="10" y="30" width="240" height="40" as="geometry" />
        </mxCell>
        <mxCell id="2BcEILWLfWBQvOdwHt-k-9" value="Grafik:&amp;nbsp;&lt;br&gt;a: Startseite a: Kontakt a: Impressum" style="whiteSpace=wrap;html=1;" vertex="1" parent="2BcEILWLfWBQvOdwHt-k-7">
          <mxGeometry x="10" y="80" width="240" height="40" as="geometry" />
        </mxCell>
        <mxCell id="2BcEILWLfWBQvOdwHt-k-17" value="-Unternehmen&lt;br&gt;-Adresse&lt;br&gt;-Ansprechpartner" style="whiteSpace=wrap;html=1;" vertex="1" parent="2BcEILWLfWBQvOdwHt-k-7">
          <mxGeometry x="10" y="130" width="240" height="70" as="geometry" />
        </mxCell>
        <mxCell id="2BcEILWLfWBQvOdwHt-k-31" style="edgeStyle=orthogonalEdgeStyle;rounded=0;orthogonalLoop=1;jettySize=auto;html=1;entryX=0.403;entryY=1.1;entryDx=0;entryDy=0;entryPerimeter=0;" edge="1" parent="1" source="2BcEILWLfWBQvOdwHt-k-11" target="2BcEILWLfWBQvOdwHt-k-6">
          <mxGeometry relative="1" as="geometry">
            <Array as="points">
              <mxPoint x="702" y="260" />
              <mxPoint x="393" y="260" />
            </Array>
          </mxGeometry>
        </mxCell>
        <mxCell id="2BcEILWLfWBQvOdwHt-k-11" value="Kontakt" style="swimlane;fillColor=#fff2cc;strokeColor=#d6b656;" vertex="1" parent="1">
          <mxGeometry x="577" y="355" width="250" height="230" as="geometry" />
        </mxCell>
        <mxCell id="2BcEILWLfWBQvOdwHt-k-12" value="kontakt.html" style="whiteSpace=wrap;html=1;" vertex="1" parent="2BcEILWLfWBQvOdwHt-k-11">
          <mxGeometry x="10" y="30" width="230" height="40" as="geometry" />
        </mxCell>
        <mxCell id="2BcEILWLfWBQvOdwHt-k-13" value="Grafik:&amp;nbsp;&lt;br&gt;a: Startseite a: Konto a: Impressum" style="whiteSpace=wrap;html=1;" vertex="1" parent="2BcEILWLfWBQvOdwHt-k-11">
          <mxGeometry x="10" y="85" width="230" height="40" as="geometry" />
        </mxCell>
        <mxCell id="2BcEILWLfWBQvOdwHt-k-18" value="- Vor-/Nachname&lt;br&gt;- Telefonnummer&lt;br&gt;- Bild&lt;br&gt;- E-Mailadresse" style="whiteSpace=wrap;html=1;" vertex="1" parent="2BcEILWLfWBQvOdwHt-k-11">
          <mxGeometry x="10" y="135" width="230" height="80" as="geometry" />
        </mxCell>
        <mxCell id="2BcEILWLfWBQvOdwHt-k-30" style="edgeStyle=orthogonalEdgeStyle;rounded=0;orthogonalLoop=1;jettySize=auto;html=1;entryX=0.568;entryY=1.075;entryDx=0;entryDy=0;entryPerimeter=0;" edge="1" parent="1" source="2BcEILWLfWBQvOdwHt-k-14" target="2BcEILWLfWBQvOdwHt-k-6">
          <mxGeometry relative="1" as="geometry" />
        </mxCell>
        <mxCell id="2BcEILWLfWBQvOdwHt-k-14" value="Impressum" style="swimlane;fillColor=#fff2cc;strokeColor=#d6b656;" vertex="1" parent="1">
          <mxGeometry x="275" y="355" width="290" height="270" as="geometry" />
        </mxCell>
        <mxCell id="2BcEILWLfWBQvOdwHt-k-15" value="impressum.html" style="whiteSpace=wrap;html=1;" vertex="1" parent="2BcEILWLfWBQvOdwHt-k-14">
          <mxGeometry x="10" y="30" width="270" height="40" as="geometry" />
        </mxCell>
        <mxCell id="2BcEILWLfWBQvOdwHt-k-16" value="Grafik:&amp;nbsp;&lt;br&gt;a: Startseite a: Konto a: Kontakt" style="whiteSpace=wrap;html=1;" vertex="1" parent="2BcEILWLfWBQvOdwHt-k-14">
          <mxGeometry x="10" y="80" width="270" height="40" as="geometry" />
        </mxCell>
        <mxCell id="2BcEILWLfWBQvOdwHt-k-19" value="- Name Website-Betreiber&lt;br&gt;- Anschrift&lt;br&gt;- Kontaktdaten&lt;br&gt;- ZustÃ¤ndiges Registeramt&lt;br&gt;- Umsatzsteuer-Identifikationsnummer" style="whiteSpace=wrap;html=1;" vertex="1" parent="2BcEILWLfWBQvOdwHt-k-14">
          <mxGeometry x="10" y="130" width="270" height="130" as="geometry" />
        </mxCell>
      </root>
    </mxGraphModel>
  </diagram>
</mxfile>
